<svg xmlns="http://www.w3.org/2000/svg" xmlns:xlink="http://www.w3.org/1999/xlink" width="117.881" height="82" viewBox="0 0 117.881 82"><defs><style>.a{fill:none;}.b{clip-path:url(#a);}.c{fill:#fff;}.d{fill:#228765;}</style><clipPath id="a"><rect class="a" width="117.881" height="82"/></clipPath></defs><g transform="translate(58.941 41)"><g class="b" transform="translate(-58.941 -41)"><path class="c" d="M216.987,129.1a13.663,13.663,0,0,1-2.087-.2,71.665,71.665,0,0,1,2.733,15.356h5.516a157.1,157.1,0,0,1-3.678-15.555,8.5,8.5,0,0,1-2.485.348" transform="translate(-108.101 -64.74)"/><path class="c" d="M32.433,9.621a5.268,5.268,0,0,1,1.491,4.373,12.126,12.126,0,0,1-4.473,8.5,18.189,18.189,0,0,0-4.92,6.312,73.4,73.4,0,0,0,4.324,13.07c3.976,8.9,6.709,11.828,8,12.772s7.057,2.733,11.281,3.181a12.921,12.921,0,0,0-2.584-4.97,1.16,1.16,0,0,1,1.64-1.64h.05a16.6,16.6,0,0,1,3.379,6.659l.447.8h0A5.715,5.715,0,0,0,52.908,61.7c1.292,1.143,6.063,1.292,7.9-.05A5.566,5.566,0,0,0,63,58.473h0a5.765,5.765,0,0,1,1.441-3.081,1.16,1.16,0,0,1,1.69,1.59,3.429,3.429,0,0,0-.6.994A54.667,54.667,0,0,0,82.676,62.1a46.268,46.268,0,0,0,12.872-.895l1.242-.248,1.938-.149h.248a45.076,45.076,0,0,1,5.815.149h.3l3.827.547-.447-.447a31.409,31.409,0,0,0-3.181-2.932,1.158,1.158,0,0,1,1.342-1.888h.05a32.75,32.75,0,0,1,3.479,3.181,18.686,18.686,0,0,0,4.92,4.025h.05l1.242.5c2.783.7,4.771.646,6.162-.149s2.087-2.236,1.988-11.033c-.05-5.069-1.392-18.139-5.119-24.1S107.028,18.616,94.952,18.616A155.046,155.046,0,0,0,78.1,19.61a74.1,74.1,0,0,1-12.673.547c-8.945-.6-13.07-2.286-15.9-3.827a24.252,24.252,0,0,1-4.572-3.876l-.3.6-.1.149-.2.348-.1.149-.2.3-.1.149-.3.3-.4.2h-.895l-.4-.3v-.149a.6.6,0,0,1-.149-.4,1.193,1.193,0,0,1-.05-.3v-.149l.1-.248.1-.149.149-.2.1-.1a15.555,15.555,0,0,0,1.292-2.634l.5-1.292-1.491.447a10.834,10.834,0,0,0-3.578,2.038h0A7.653,7.653,0,0,0,37.7,12.652l-.3.5-.2.4-.248.348h-.1l-.3.149h-.1l-.348.149h0A1.193,1.193,0,0,1,34.967,13a1.143,1.143,0,0,1,.1-.5l.6-.994.2-.3.5-.646.2-.248.7-.745h0l.845-.7.248-.2.6-.4.248-.149.745-.447h.05a9.89,9.89,0,0,0-2.336-1.64c-3.628-1.64-10.536-2.485-14.114.149A7.007,7.007,0,0,0,21.4,8.527c2.982-.845,8-1.69,11.033,1.044" transform="translate(-10.765 -2.266)"/><path class="c" d="M22.542,16.9c-2.584-2.336-8-.944-10.486,0-.149.6-.348,1.193-.6,1.888a1.044,1.044,0,0,1-.3.4l-.149.1-.5.348-.248.2-.5.447C7.533,22.37,5.2,25.749,4.8,27.737h.348l.348.1h.2l.3.2.149.149.149.2v.1a1.193,1.193,0,0,1,.1.4h0a1.093,1.093,0,0,1-.248.845l-.1.1-.2.149a2.087,2.087,0,0,1-.8.248h-.2c.3,1.988,1.093,4.075,1.888,4.572l.248.1h.7a13.717,13.717,0,0,0,3.827-.7l.7-.248.745-.248.348-.149.348-.149.447-.149a22.263,22.263,0,0,1,1.093-1.988l.646-.895a20.774,20.774,0,0,1,1.789-2.236A20.376,20.376,0,0,1,19.709,26.2l.745-.646a9.691,9.691,0,0,0,2.783-6.113,3.181,3.181,0,0,0-.745-2.535m-8.8,2.385h.1a1.491,1.491,0,0,1,1.044,2.137,1.441,1.441,0,0,1-1.093.8,1.491,1.491,0,0,1-1.69-1.292V20.78a1.541,1.541,0,0,1,1.64-1.491" transform="translate(-2.415 -7.858)"/><path class="c" d="M184.375,122.141a37.024,37.024,0,0,0-4.175-.149,7.5,7.5,0,0,0,1.392,2.137,1.193,1.193,0,0,1,.348.6,26.441,26.441,0,0,1,1.093,6.759,44.183,44.183,0,0,1-1.988,9.442h4.522l.4-1.839a39.908,39.908,0,0,0,1.193-7.5c0-2.236-.05-3.926-.1-5.467v-.944a1.143,1.143,0,0,1,.3-.845,7.157,7.157,0,0,0,1.044-1.541l-3.727-.547Z" transform="translate(-90.646 -61.362)"/><path class="c" d="M92.66,124.7a12.672,12.672,0,0,1-6.56.1,41.5,41.5,0,0,1,.6,6.113v.7a81.851,81.851,0,0,1-.547,10.635h5.616c-.05-1.143-.1-2.634-.2-4.125s-.248-4.175-.2-5.318a48.455,48.455,0,0,1,1.342-8.051" transform="translate(-43.311 -62.728)"/><path class="c" d="M52.827,114.829a1.143,1.143,0,0,1,.1.6l-.2,2.882c-.547,7.852-.745,10.933-3.727,17.245h5.218c1.044-5.168,2.535-10.884,4.274-17.394l.4-1.541a1.143,1.143,0,0,1,.348-.6,5.218,5.218,0,0,0,1.491-2.535,40.5,40.5,0,0,1-8.647-2.087,9.591,9.591,0,0,0,.745,3.429" transform="translate(-24.648 -56.038)"/><path class="d" d="M117.74,80.168c-.994-2.038-2.932-10.287-4.274-17.344,1.739-1.739,2.535-5.765,2.485-12.524a81.055,81.055,0,0,0-1.242-12.176c-.845-4.87-2.236-9.89-4.224-13.17-4.622-7.4-13.518-11.132-26.389-11.132a156.94,156.94,0,0,0-17.1.994,71.961,71.961,0,0,1-12.176.547c-8.448-.547-12.176-2.038-14.959-3.578a28.129,28.129,0,0,1-4.721-4.175c1.044-2.634.745-3.131.5-3.479A1.292,1.292,0,0,0,34.6,3.585a12.374,12.374,0,0,0-2.982.6,15.754,15.754,0,0,0-3.777-2.733c-3.976-1.789-11.927-2.932-16.45.4A9.592,9.592,0,0,0,7.463,7.909c-.149.5-.3,1.044-.5,1.59C4.083,11.835.356,16.755.058,19.786s.994,8.747,4.025,9.393c2.137.5,5.119-.547,7.6-1.441a75.093,75.093,0,0,0,4.274,12.623c.895,1.938,1.888,4.125,3.032,6.162,1.739,3.131,3.727,6.063,5.665,7.5l.447.3a11.629,11.629,0,0,0,.8,5.218l-.2,2.584c-.547,8.4-.745,10.933-4.274,18.04a1.143,1.143,0,0,0,.5,1.541c.149.1.5-.4.5-.4h8.1s1.044.1,1.143-.447c.994-5.318,2.584-11.281,4.423-18.139l.3-1.193A7.6,7.6,0,0,0,38.324,58a10.486,10.486,0,0,0,1.839,2.535,38.614,38.614,0,0,1,.944,7.753v.7a62.27,62.27,0,0,1-.745,11.182,1.143,1.143,0,0,0,.5,1.541l.547.149h8.2s1.143-.5,1.143-1.093-.1-3.28-.2-5.516-.248-4.025-.2-5.069a41.347,41.347,0,0,1,1.988-9.939,7.852,7.852,0,0,0,1.69-2.485,56.655,56.655,0,0,0,17.692,4.224,48.106,48.106,0,0,0,13.468-.944l1.093-.2.845-.1a9.691,9.691,0,0,0,1.988,3.479,24.65,24.65,0,0,1,.944,5.815,39.856,39.856,0,0,1-2.435,10.188,1.143,1.143,0,0,0,.547,1.541c.149.05.5-.4.5-.4h7.256s1.143,0,1.143-.646a23.112,23.112,0,0,1,.5-2.485,41.745,41.745,0,0,0,1.242-8.051c0-2.286-.05-4.025-.1-5.566v-.5a9.244,9.244,0,0,0,1.342-2.187l3.33,1.292h.05l.745.3c1.69,5.168,3.23,13.816,3.032,17.1a1.143,1.143,0,0,0,1.093,1.242h8.448s1.143-.547,1.143-1.143a1.143,1.143,0,0,0-.1-.5M12.83,23.315A22.265,22.265,0,0,0,11.736,25.3h0l-.447.149-.348.149-.348.149L9.848,26l-.7.248a13.716,13.716,0,0,1-3.827.8H4.58l-.248-.1c-.8-.5-1.59-2.584-1.888-4.572h.248a2.038,2.038,0,0,0,.8-.4l.2-.149.1-.1a1.093,1.093,0,0,0,.2-.745h0a1.193,1.193,0,0,0-.1-.4v-.1l-.149-.248-.149-.149-.3-.2h-.2l-.348-.149H2.393c.4-1.988,2.733-5.318,5.019-7.4l.5-.447.248-.2.5-.348.149-.1a1.044,1.044,0,0,0,.3-.4c.248-.7.447-1.342.6-1.888,2.435-.944,7.9-2.336,10.486,0a3.181,3.181,0,0,1,.7,2.535A9.691,9.691,0,0,1,18.1,17.6l-.745.7a19.928,19.928,0,0,0-3.926,4.075l-.646.944M34.249,60.488h0l-.4,1.491c-1.739,6.51-3.28,12.225-4.274,17.394H24.359c2.982-6.312,3.181-9.393,3.727-17.245l.2-2.882v-.1a1.093,1.093,0,0,0-.05-.248l-.1-.248a9.592,9.592,0,0,1-.745-3.429h0l1.392.5a40.206,40.206,0,0,0,7.256,1.64h0a5.218,5.218,0,0,1-1.491,2.584h0a1.143,1.143,0,0,0-.348.6M47.966,69.98c-.05,1.143.1,3.181.2,5.318h0c.05.944.1,1.839.149,2.733v.5c0,.348.05.646.05.895H42.847a81.85,81.85,0,0,0,.547-10.635v-.7a41.248,41.248,0,0,0-.547-6.113,12.623,12.623,0,0,0,6.56-.1,48.257,48.257,0,0,0-1.392,8.051m48.653-7.156h0a3.529,3.529,0,0,0-.3,1.242v.5c.05.745.05,1.59.1,2.485V69.98a20.372,20.372,0,0,1-.3,2.833c-.149.944-.3,1.888-.5,2.833s-.3,1.242-.447,1.839v.3l-.2.994-.1.4v.2H90.357a44.678,44.678,0,0,0,1.988-9.442,26.389,26.389,0,0,0-1.093-6.759,1.193,1.193,0,0,0-.348-.547,7.6,7.6,0,0,1-1.392-2.137h0a36.226,36.226,0,0,1,4.175.149h.3l3.727.547h0l-.447.8-.547.745m8.5-1.342-.3-.1h-.05l-.348-.149-.2-.1h-.05a18.537,18.537,0,0,1-4.92-4.025,33.844,33.844,0,0,0-3.479-3.181h-.1l-.149-.1h-.149a1.143,1.143,0,0,0-1.044,1.988h.05a30.912,30.912,0,0,1,3.181,2.932l.447.447h-.05l-.5-.1-1.342-.2h-.3l-.7-.1h-.149l-.845-.1h-.3a45.475,45.475,0,0,0-5.815-.149h-.149l-1.938.149-1.242.248a46.317,46.317,0,0,1-12.872.895l-1.093-.1-3.33-.4c-1.441-.248-2.932-.5-4.324-.845a54.318,54.318,0,0,1-8.4-2.733,3.429,3.429,0,0,1,.646-.994,1.143,1.143,0,0,0-.646-1.938h-.2a1.143,1.143,0,0,0-.845.348,6.013,6.013,0,0,0-1.491,3.081h0A5.367,5.367,0,0,1,50.1,59.3a8.311,8.311,0,0,1-4.771.944,9.442,9.442,0,0,1-1.64-.2,3.578,3.578,0,0,1-1.541-.646,6.063,6.063,0,0,1-1.789-2.783v-.2h0v-.149l-.348-.646a16.649,16.649,0,0,0-3.379-6.659l-.149-.149h-.05a1.145,1.145,0,1,0-1.491,1.739,12.871,12.871,0,0,1,2.634,4.97h-.05a38.018,38.018,0,0,1-4.92-.845l-.8-.2-.8-.2-2.187-.7-.6-.248h-.05l-.547-.248a7.5,7.5,0,0,1-1.342-.745c-.845-.6-2.286-2.038-4.274-5.417A73.2,73.2,0,0,1,18.3,39.566,73.5,73.5,0,0,1,13.973,26.5a18.239,18.239,0,0,1,4.92-6.262,12.126,12.126,0,0,0,4.473-8.5,5.318,5.318,0,0,0-1.491-4.373l-.6-.5a7.107,7.107,0,0,0-1.342-.745c-2.932-1.193-6.709-.5-9.095.149h.05A7.156,7.156,0,0,1,12.78,3.834h0c2.982-2.187,8.25-1.988,12.027-.895a14.661,14.661,0,0,1,2.038.745h.05a10.387,10.387,0,0,1,2.385,1.64h-.05l-.745.4-.248.149-.6.4-.248.149-.8.646h0l-.7.745-.2.248-.5.646-.2.3a9.741,9.741,0,0,0-.646,1.093,1.143,1.143,0,0,0,.547,1.541l.5.149h.05l.348-.1h.05l.3-.149h.1l.248-.348.2-.4.3-.5A7.852,7.852,0,0,1,28.186,8.8h0a10.884,10.884,0,0,1,3.628-2.087l1.441-.447h.05l-.5,1.292a15.505,15.505,0,0,1-1.292,2.634l-.1.1-.149.2-.1.149-.1.248v.149a1.491,1.491,0,0,0,.05.3.6.6,0,0,0,.149.4v.149l.4.3h.845l.4-.2.3-.3.1-.149.2-.3.1-.2.2-.248.1-.149.3-.547h0a24.2,24.2,0,0,0,4.572,3.876A24.4,24.4,0,0,0,43.1,15.86l1.342.4,2.684.646,1.044.2h.05l1.242.2h.05c1.541.2,3.28.4,5.218.547a73.95,73.95,0,0,0,12.524-.6A155.1,155.1,0,0,1,84.1,16.258a46.467,46.467,0,0,1,11.082,1.193,28.427,28.427,0,0,1,4.87,1.64A18.785,18.785,0,0,1,108.6,26.3c1.739,2.783,2.982,7.156,3.777,11.48A79.814,79.814,0,0,1,113.715,50.4c.1,8.8-1.392,10.685-1.988,11.033a5.864,5.864,0,0,1-3.578.646,15.207,15.207,0,0,1-2.584-.447l-.3-.1m4.075,17.941a71.416,71.416,0,0,0-2.733-15.356h.248l1.839.149h.149a8.4,8.4,0,0,0,2.286-.348h0a157.043,157.043,0,0,0,3.678,15.456h-5.516Z" transform="translate(-0.008 0.142)"/><path class="d" d="M21.039,23.392a1.59,1.59,0,0,1,1.739,1.441,1.59,1.59,0,0,1-1.739,1.441A1.59,1.59,0,0,1,19.3,24.834a1.59,1.59,0,0,1,1.739-1.441" transform="translate(-9.708 -11.763)"/><path class="d" d="M137.2,117.726c0,.646-1.143,1.143-1.143,1.143h-8.448a1.143,1.143,0,0,1-1.093-1.242c.2-3.28-1.342-11.927-3.032-17.1l-.745-.3h-.05l-3.33-1.292a9.244,9.244,0,0,1-1.292,2.187v.5c.05,1.541.1,3.28.1,5.566a41.746,41.746,0,0,1-1.242,8.051,23.108,23.108,0,0,0-.5,2.485c0,.646-1.143.646-1.143.646h-7.305s-.348.447-.5.4a1.143,1.143,0,0,1-.547-1.541,39.856,39.856,0,0,0,2.435-10.188,24.65,24.65,0,0,0-.944-5.815,9.691,9.691,0,0,1-1.988-3.479l-.845.1-1.093.2a48.106,48.106,0,0,1-13.468.944,56.655,56.655,0,0,1-17.692-4.224,7.852,7.852,0,0,1-1.69,2.485,41.348,41.348,0,0,0-1.988,9.939c-.05,1.044.1,3.081.2,5.069s.3,4.274.2,5.516-1.143,1.093-1.143,1.093h-8.2l-.547-.149a1.143,1.143,0,0,1-.5-1.541A62.269,62.269,0,0,0,60.416,106v-.7a38.614,38.614,0,0,0-.895-7.753,10.486,10.486,0,0,1-1.839-2.535,7.6,7.6,0,0,1-1.938,3.528l-.3,1.193c-1.839,6.858-3.429,12.822-4.423,18.139-.1.547-1.143.447-1.143.447H41.829s-.348.447-.5.4a1.143,1.143,0,0,1-.5-1.541c3.528-7.107,3.727-9.641,4.274-18.04l.2-2.584a11.629,11.629,0,0,1-.8-5.218l-.447-.3c-1.988-1.441-3.926-4.324-5.665-7.5l2.783.2h.05a111.123,111.123,0,0,0,42.193-5.367,100.686,100.686,0,0,1,48.256-3.678h.05l2.435.447a81.06,81.06,0,0,1,1.193,12.176c.05,6.759-.745,10.784-2.485,12.524,1.342,7.057,3.28,15.307,4.274,17.344a1.143,1.143,0,0,1,.1.5" transform="translate(-19.316 -36.869)"/></g></g></svg>