<svg xmlns="http://www.w3.org/2000/svg" xmlns:xlink="http://www.w3.org/1999/xlink" width="174" height="174" viewBox="0 0 174 174"><defs><style>.a{fill:none;}.b{fill:#7332aa;}.c{clip-path:url(#c);}.d{fill:#fff;}.e{filter:url(#a);}</style><filter id="a" x="0" y="0" width="174" height="174" filterUnits="userSpaceOnUse"><feOffset dy="3" input="SourceAlpha"/><feGaussianBlur stdDeviation="3" result="b"/><feFlood flood-opacity="0.161"/><feComposite operator="in" in2="b"/><feComposite in="SourceGraphic"/></filter><clipPath id="c"><rect class="a" width="99.341" height="107.255"/></clipPath></defs><g transform="translate(-27 -280)"><g class="e" transform="matrix(1, 0, 0, 1, 27, 280)"><rect class="b" width="156" height="156" rx="78" transform="translate(9 6)"/></g><g transform="translate(112.93 363.812)"><g class="c" transform="translate(-49.671 -53.627)"><path class="d" d="M0,43.924l.365-.243L12.174,31.871c.365-.365.365-.365.73,0L24.835,43.68c.487.487.487.487.852,0L37.5,31.871c.365-.365.365-.365,0-.852L25.566,19.088c-.365-.365-.365-.365,0-.73L37.375,6.549c.365-.365.365-.365.852,0L75.48,43.68c.365.365.365.365,0,.73L63.549,56.341c-.365.365-.365.365-.73,0L50.888,44.411c-.365-.365-.365-.365-.852,0L38.105,56.341c-.365.365-.365.365,0,.73L50.036,69c.365.365.365.365,0,.73L38.227,81.542c-.365.365-.365.365-.852,0L.487,44.532,0,44.167Z" transform="translate(0 1.364)"/><path class="d" d="M50.6,90.122l-2.191-4.5L46.221,80.87a.365.365,0,0,1,.122-.609L47.8,78.8h.365L57.3,83.183h.122l-.243.243-1.339,1.339a.487.487,0,0,1-.73.122l-.974-.487a.365.365,0,0,0-.487.122L51.7,86.47a.365.365,0,0,0-.122.487l.487.852a.487.487,0,0,1-.122.73l-1.217,1.217L50.482,90Zm0-5.478L51.942,83.3l-2.8-1.461h-.122l1.461,2.8" transform="translate(10.024 17.133)"/><path class="d" d="M72.979,12.54A12.539,12.539,0,1,1,60.683,0a12.539,12.539,0,0,1,12.3,12.539" transform="translate(10.414 0)"/><path class="d" d="M56.833,59.357v.365l1.339,3.287a.609.609,0,0,1-.122.73c-.974.974-.609.852-1.826.365l-2.678-1.1h-.365l.243.243,3.044,2.922c.609.609.609.487,0,1.217l-1.1,1.1-.365-.365-6.574-6.574a.457.457,0,0,1,0-.73L49.65,59.6a.487.487,0,0,1,.73-.122l4.87,1.948h.487v-.487l-1.948-4.748a.609.609,0,0,1,.122-.73L55.372,54l.365.243,6.7,6.7c.243.243.243.365,0,.609l-1.1,1.1c-.243.243-.365.243-.487,0l-3.287-3.287-.243-.243Z" transform="translate(10.49 11.741)"/><path class="d" d="M70.089,47.433l-.243-.243-3.652-3.652c-.243-.243-.243-.365,0-.609l1.1-1.1c.243-.243.365-.243.609,0l6.087,6.087.852.852-1.7,1.7h-.487l-5.722-1.7h-.487l.243.365,3.652,3.652c.243.243.243.365,0,.609l-1.339,1.339-.365-.243-6.7-6.7c-.243-.243-.243-.365,0-.609l1.217-1.217a.487.487,0,0,1,.609-.122l5.844,1.7h.365" transform="translate(13.426 9.055)"/><path class="d" d="M48.659,74.915l-1.826,1.826-2.678-2.8L41.72,76.376l1.1.974L44.4,78.811c.243.243.243.365,0,.487l-1.339,1.339c-.243.243-.365.243-.609,0l-4.87-4.87L35.633,73.82c-.243-.243-.243-.365,0-.487l1.583-1.583,2.678,2.678,2.557-2.557-.609-.487-1.826-1.826c-.243-.243-.243-.365,0-.487l1.339-1.339c.243-.243.365-.243.609,0l3.409,3.409,3.165,3.165.365.365" transform="translate(7.707 14.687)"/><path class="d" d="M43.791,65.174l.365.487L48.3,69.8a1.583,1.583,0,0,0,1.461.609,1.461,1.461,0,0,0,.852-2.313l-.73-.73L46.1,63.591c-.243-.243-.243-.365,0-.609L47.687,61.4l.243.243L52.192,65.9a3.9,3.9,0,0,1,1.339,3.044,2.8,2.8,0,0,1-.122.852,4.748,4.748,0,0,1-3.287,3.165,3.409,3.409,0,0,1-3.287-.974l-4.626-4.5a.365.365,0,0,1,0-.365l1.7-1.826" transform="translate(9.166 13.349)"/><path class="d" d="M68.8,54.156l-1.826,1.826H66.6l-1.1-.609a.365.365,0,0,0-.487,0l-2.07,2.07a.487.487,0,0,0,0,.365l.609,1.1a.487.487,0,0,1,0,.487l-1.7,1.583h-.122l-.243-.365-4.383-9.131a.365.365,0,0,1,.122-.487l1.461-1.461a.365.365,0,0,1,.487-.122l9.252,4.5h.243M60.152,52.33H60.03l1.461,2.922,1.583-1.1-2.8-1.583" transform="translate(12.406 10.732)"/><path class="d" d="M79.113,61.635l-1.7,1.7h-.365l-1.1-.609h-.365l-2.191,2.191L74,66.139a.487.487,0,0,1-.122.609L72.3,68.33l-.243-.365L67.913,59.2a.609.609,0,0,1,.122-.73l1.339-1.339a.365.365,0,0,1,.487-.122l9.131,4.5h.243m-6.818,1.339,1.339-1.339-2.8-1.461h-.122l1.461,2.8" transform="translate(14.75 12.384)"/><path class="d" d="M62.241,74.183l2.07,2.07c.243.243.243.365,0,.609L62.85,78.322l-.365-.243L56.033,71.5c-.243-.243-.243-.365,0-.609l2.922-2.8A3.652,3.652,0,0,1,61.389,67a3.287,3.287,0,0,1,2.922,4.626,7.791,7.791,0,0,1-1.1,1.461l-.974.974M59.076,70.9l1.7,1.7L62,71.261a1.119,1.119,0,1,0-1.583-1.583L59.076,70.9" transform="translate(12.143 14.567)"/><path class="d" d="M59.255,81.9l-1.826,1.826-.243-.243L50.733,77.03a.457.457,0,0,1,0-.73l2.8-2.8a3.287,3.287,0,0,1,5.722,1.7A3.409,3.409,0,0,1,58.4,78l-1.217,1.217c-.243.243-.122.365,0,.487l1.826,1.826.243.243m-5.357-5.6,1.461,1.583,1.217-1.217a1.122,1.122,0,0,0-1.583-1.583l-1.1,1.217" transform="translate(10.99 15.737)"/><path class="d" d="M61.3,65.9l4.5-4.5,1.461,1.461-2.678,2.678L65.8,66.757l.365-.365,1.583-1.583c.243-.243.365-.243.609,0l.974.974c.243.243.243.365,0,.609l-1.583,1.583-.243.243,1.339,1.339,2.191-2.191c.487-.487.365-.487.852,0l.974.974-4.626,4.5L61.3,65.9" transform="translate(13.328 13.349)"/><path class="d" d="M79.372,58.146l.974-.974,1.461-1.461h.365l1.461,1.461-.243.243-3.9,3.9c-.243.243-.365.243-.487,0l-6.574-6.574c-.243-.243-.243-.365,0-.487l1.339-1.217c.243-.243.365-.243.609,0l4.87,4.87.365.365" transform="translate(15.708 11.491)"/></g></g></g></svg>